<?xml version="1.0" standalone="no"?>
<!DOCTYPE svg PUBLIC "-//W3C//DTD SVG 20010904//EN"
 "http://www.w3.org/TR/2001/REC-SVG-20010904/DTD/svg10.dtd">
<svg version="1.0" xmlns="http://www.w3.org/2000/svg"
 width="300.000000pt" height="300.000000pt" viewBox="0 0 300.000000 300.000000"
 preserveAspectRatio="xMidYMid meet">
<metadata>
Created by potrace 1.11, written by Peter Selinger 2001-2013
</metadata>
<g transform="translate(0.000000,300.000000) scale(0.100000,-0.100000)"
fill="#000000" stroke="none">
<path d="M2133 2984 c-341 -73 -582 -389 -560 -735 3 -48 13 -115 23 -149 l17
-60 -107 -106 c-58 -58 -106 -108 -106 -111 0 -3 56 -61 125 -130 l125 -125
63 12 c71 15 139 4 186 -29 14 -10 31 -21 38 -24 6 -4 31 13 59 42 l47 48 51
-13 c84 -22 107 -24 196 -24 200 -1 405 97 538 254 57 68 129 214 147 301 17
84 19 229 4 274 -10 29 -41 51 -71 51 -6 0 -59 -47 -118 -105 -126 -122 -186
-156 -281 -156 -67 -1 -87 4 -147 33 -151 75 -214 265 -138 416 13 26 69 94
125 151 57 59 101 112 101 123 0 31 -18 55 -47 65 -41 14 -199 12 -270 -3z"/>
<path d="M231 2809 c-26 -10 -189 -169 -215 -210 -32 -51 -29 -56 187 -349
100 -134 129 -167 157 -176 43 -14 62 -9 100 27 16 16 34 29 40 29 12 0 960
-946 960 -958 0 -4 -16 -23 -35 -42 -39 -38 -53 -86 -35 -121 7 -13 225 -236
484 -495 531 -530 511 -515 651 -510 206 6 337 203 271 406 -18 52 -46 82
-494 533 -262 262 -485 480 -495 483 -51 16 -83 6 -126 -40 -14 -14 -28 -26
-33 -26 -4 0 -224 216 -488 480 l-480 480 30 28 c36 34 48 67 41 107 -6 29
-39 57 -279 233 -13 9 -52 38 -87 64 -57 43 -105 69 -123 67 -4 0 -18 -5 -31
-10z"/>
<path d="M521 951 c-337 -339 -470 -480 -489 -516 -20 -39 -26 -66 -28 -126
-2 -67 2 -84 28 -135 37 -75 66 -105 133 -139 99 -50 227 -42 310 20 17 12
209 201 427 420 l398 397 -21 27 c-48 61 -64 169 -35 236 l13 30 -128 128
c-70 70 -131 126 -136 126 -4 -1 -217 -211 -472 -468z"/>
</g>
</svg>
