<svg width="48" height="48" viewBox="0 0 48 48" fill="none" xmlns="http://www.w3.org/2000/svg">
<path d="M46.1383 11.564L46.1245 11.5087C45.0063 6.98831 39.9651 2.13764 35.3357 1.12849L35.2834 1.11774C27.7955 -0.310732 20.2031 -0.310732 12.7166 1.11774L12.6629 1.12849C8.03491 2.13764 2.99377 6.98831 1.87404 11.5087L1.86175 11.564C0.479353 17.877 0.479353 24.279 1.86175 30.5919L1.87404 30.6472C2.94601 34.9747 7.61174 39.6025 12.0684 40.8753V45.9213C12.0684 47.7476 14.2941 48.6446 15.5597 47.3267L20.6723 42.0124C21.7811 42.0744 22.8906 42.109 24 42.109C27.7694 42.109 31.5402 41.7526 35.2834 41.0384L35.3357 41.0276C39.9651 40.0185 45.0063 35.1678 46.1245 30.6474L46.1383 30.5921C47.5207 24.279 47.5207 17.877 46.1383 11.564ZM42.0925 29.6765C41.346 32.6256 37.5183 36.292 34.477 36.9694C30.4956 37.7265 26.4827 38.0501 22.4737 37.9391C22.394 37.9369 22.3173 37.9678 22.2617 38.0249C21.6928 38.6089 18.5288 41.8569 18.5288 41.8569L14.5583 45.9319C14.268 46.2345 13.758 46.0287 13.758 45.6109V37.2517C13.758 37.1136 13.6594 36.9963 13.5238 36.9697C13.523 36.9695 13.5222 36.9694 13.5215 36.9692C10.4802 36.2918 6.65405 32.6254 5.90602 29.6763C4.66186 23.9701 4.66186 18.1856 5.90602 12.4793C6.65405 9.53023 10.4802 5.86381 13.5215 5.18644C20.4749 3.86395 27.5251 3.86395 34.477 5.18644C37.5198 5.86381 41.346 9.53023 42.0925 12.4793C43.338 18.1857 43.338 23.9703 42.0925 29.6765Z" fill="white"/>
<path d="M30.6156 33.5351C30.1481 33.3932 29.7025 33.2978 29.2887 33.126C25.0008 31.3471 21.0545 29.052 17.9286 25.5338C16.151 23.5332 14.7597 21.2745 13.5836 18.8842C13.0259 17.7506 12.5559 16.5726 12.0768 15.4024C11.64 14.3352 12.2834 13.2326 12.9609 12.4285C13.5967 11.6739 14.4147 11.0964 15.3007 10.6707C15.9922 10.3385 16.6743 10.53 17.1794 11.1162C18.2712 12.3834 19.274 13.7154 20.0861 15.1843C20.5855 16.0877 20.4484 17.1921 19.5434 17.807C19.3235 17.9564 19.123 18.1318 18.9181 18.3006C18.7384 18.4486 18.5693 18.598 18.4461 18.7983C18.2209 19.1648 18.2102 19.597 18.3552 19.9955C19.4712 23.0625 21.3524 25.4475 24.4394 26.732C24.9334 26.9375 25.4295 27.1768 25.9986 27.1105C26.9517 26.9991 27.2603 25.9537 27.9281 25.4075C28.5809 24.8738 29.4151 24.8667 30.1183 25.3117C30.8216 25.7568 31.5035 26.2347 32.1811 26.7176C32.8464 27.1916 33.5087 27.6553 34.1223 28.1957C34.7123 28.7153 34.9155 29.397 34.5833 30.1021C33.975 31.3936 33.09 32.468 31.8133 33.1538C31.4528 33.3472 31.0222 33.4099 30.6156 33.5351C30.1481 33.393 31.0222 33.4099 30.6156 33.5351Z" fill="white"/>
<path d="M24.0117 9.19398C29.6204 9.35112 34.227 13.0733 35.2141 18.6182C35.3823 19.563 35.4422 20.529 35.517 21.4879C35.5485 21.8913 35.3201 22.2745 34.8848 22.2797C34.4352 22.2851 34.2329 21.9089 34.2038 21.5057C34.146 20.7076 34.1059 19.906 33.9959 19.1145C33.4153 14.9365 30.0838 11.4799 25.9251 10.7381C25.2993 10.6265 24.6588 10.5971 24.0249 10.5306C23.6241 10.4885 23.0993 10.4643 23.0105 9.96613C22.936 9.54849 23.2885 9.21595 23.6862 9.1946C23.7943 9.18861 23.9031 9.19352 24.0117 9.19398C29.6204 9.35112 23.9031 9.19352 24.0117 9.19398Z" fill="white"/>
<path d="M32.5353 20.2433C32.5261 20.3133 32.5212 20.478 32.4802 20.6331C32.3313 21.1962 31.4776 21.2667 31.281 20.6984C31.2228 20.5297 31.214 20.3379 31.2137 20.1564C31.2117 18.9684 30.9535 17.7817 30.3545 16.7481C29.7387 15.6858 28.7979 14.7928 27.6945 14.2524C27.0272 13.9257 26.3056 13.7227 25.5743 13.6016C25.2547 13.5488 24.9317 13.5167 24.6105 13.472C24.2213 13.4179 24.0135 13.1699 24.0319 12.7863C24.0491 12.4269 24.3118 12.1684 24.7034 12.1905C25.9906 12.2636 27.2338 12.5418 28.3781 13.1478C30.7052 14.3801 32.0344 16.3253 32.4224 18.9226C32.4399 19.0403 32.4682 19.1569 32.4771 19.275C32.4991 19.5667 32.5129 19.8587 32.5353 20.2433C32.5261 20.3133 32.5129 19.8587 32.5353 20.2433Z" fill="white"/>
<path d="M29.0467 20.1076C28.5774 20.1161 28.3263 19.8563 28.2779 19.4261C28.2443 19.1261 28.2177 18.8222 28.1461 18.5303C28.0051 17.9556 27.6996 17.4229 27.2161 17.0707C26.9878 16.9043 26.7292 16.7831 26.4582 16.7049C26.114 16.6056 25.7566 16.6329 25.4131 16.5487C25.0402 16.4573 24.8339 16.1554 24.8926 15.8055C24.9459 15.4871 25.2557 15.2385 25.6036 15.2637C27.7781 15.4207 29.3322 16.5449 29.554 19.1048C29.5697 19.2854 29.5881 19.4763 29.548 19.6491C29.4794 19.945 29.2603 20.0932 29.0467 20.1076C28.5774 20.1161 29.2603 20.0932 29.0467 20.1076Z" fill="white"/>
</svg>
