<svg width="50" height="50" viewBox="0 0 50 50" fill="none" xmlns="http://www.w3.org/2000/svg">
<path d="M0.52063 49.506L3.94943 37.328C1.74451 33.5822 0.583605 29.3203 0.583605 24.9421C0.583605 11.4614 11.5509 0.494141 25.0316 0.494141C38.5122 0.494141 49.4794 11.4614 49.4794 24.9421C49.4794 38.4227 38.5122 49.39 25.0316 49.39C20.8311 49.39 16.718 48.3148 13.0794 46.2732L0.52063 49.506ZM13.7214 41.8254L14.4698 42.2824C17.6422 44.2191 21.2945 45.2429 25.0316 45.2429C36.2254 45.2429 45.3322 36.1359 45.3322 24.9421C45.3322 13.7482 36.2254 4.64132 25.0316 4.64132C13.8377 4.64132 4.73079 13.7482 4.73079 24.9421C4.73079 28.8424 5.83932 32.63 7.93625 35.8954L8.44021 36.6801L6.46569 43.6932L13.7214 41.8254Z" fill="white"/>
<path d="M18.1638 13.5632L16.5774 13.4768C16.0791 13.4496 15.5904 13.6161 15.2137 13.9432C14.4447 14.6111 13.215 15.9022 12.8372 17.5848C12.274 20.0935 13.1444 23.1655 15.3973 26.2375C17.6501 29.3095 21.8485 34.2246 29.2724 36.3239C31.6647 37.0003 33.5466 36.5443 34.9986 35.6155C36.1486 34.8799 36.9413 33.6992 37.227 32.3644L37.4803 31.1814C37.5608 30.8054 37.3698 30.4238 37.0206 30.2629L31.6592 27.7916C31.3111 27.6312 30.8984 27.7326 30.6643 28.036L28.5595 30.7645C28.4006 30.9706 28.1284 31.0524 27.8826 30.966C26.4412 30.4595 21.613 28.4373 18.9637 23.3341C18.8488 23.1128 18.8774 22.8442 19.0404 22.6554L21.0519 20.3284C21.2574 20.0907 21.3093 19.7567 21.1858 19.4679L18.8748 14.061C18.7517 13.7732 18.476 13.5803 18.1638 13.5632Z" fill="white"/>
</svg>
